<svg width="609" height="26" viewBox="0 0 609 26" fill="none" xmlns="http://www.w3.org/2000/svg">
<path d="M314.803 10.4712C314.803 4.76771 319.565 0.219345 325.263 0.48174L609 13.5493L325.225 25.5589C319.542 25.7994 314.803 21.2566 314.803 15.5678V10.4712Z" fill="url(#paint0_linear_23_5)"/>
<path d="M321.057 15V6.27273H324.108C324.716 6.27273 325.217 6.37784 325.612 6.58807C326.007 6.79545 326.301 7.07528 326.494 7.42756C326.688 7.77699 326.784 8.16477 326.784 8.59091C326.784 8.96591 326.717 9.27557 326.584 9.51989C326.453 9.7642 326.28 9.95739 326.064 10.0994C325.851 10.2415 325.619 10.3466 325.369 10.4148V10.5C325.636 10.517 325.905 10.6108 326.175 10.7812C326.445 10.9517 326.67 11.196 326.852 11.5142C327.034 11.8324 327.125 12.2216 327.125 12.6818C327.125 13.1193 327.026 13.5128 326.827 13.8622C326.628 14.2116 326.314 14.4886 325.885 14.6932C325.456 14.8977 324.898 15 324.21 15H321.057ZM322.114 14.0625H324.21C324.901 14.0625 325.391 13.929 325.68 13.6619C325.973 13.392 326.119 13.0653 326.119 12.6818C326.119 12.3864 326.044 12.1136 325.893 11.8636C325.743 11.6108 325.528 11.4091 325.25 11.2585C324.972 11.1051 324.642 11.0284 324.261 11.0284H322.114V14.0625ZM322.114 10.108H324.074C324.392 10.108 324.679 10.0455 324.935 9.92045C325.193 9.79545 325.398 9.61932 325.548 9.39205C325.702 9.16477 325.778 8.89773 325.778 8.59091C325.778 8.20739 325.645 7.8821 325.378 7.61506C325.111 7.34517 324.688 7.21023 324.108 7.21023H322.114V10.108ZM328.725 15V8.45455H329.697V9.44318H329.765C329.884 9.11932 330.1 8.85653 330.413 8.65483C330.725 8.45312 331.077 8.35227 331.469 8.35227C331.543 8.35227 331.636 8.35369 331.746 8.35653C331.857 8.35937 331.941 8.36364 331.998 8.36932V9.39205C331.964 9.38352 331.886 9.37074 331.763 9.35369C331.644 9.33381 331.518 9.32386 331.384 9.32386C331.066 9.32386 330.782 9.39062 330.532 9.52415C330.285 9.65483 330.089 9.83665 329.944 10.0696C329.802 10.2997 329.731 10.5625 329.731 10.858V15H328.725ZM335.735 15.1364C335.104 15.1364 334.56 14.9972 334.103 14.7188C333.648 14.4375 333.298 14.0455 333.05 13.5426C332.806 13.0369 332.684 12.4489 332.684 11.7784C332.684 11.108 332.806 10.517 333.05 10.0057C333.298 9.49148 333.641 9.09091 334.082 8.80398C334.525 8.5142 335.042 8.36932 335.633 8.36932C335.974 8.36932 336.31 8.42614 336.643 8.53977C336.975 8.65341 337.278 8.83807 337.55 9.09375C337.823 9.34659 338.04 9.68182 338.202 10.0994C338.364 10.517 338.445 11.0312 338.445 11.642V12.0682H333.4V11.1989H337.423C337.423 10.8295 337.349 10.5 337.201 10.2102C337.056 9.92045 336.849 9.69176 336.579 9.52415C336.312 9.35653 335.996 9.27273 335.633 9.27273C335.232 9.27273 334.886 9.37216 334.593 9.57102C334.303 9.76705 334.08 10.0227 333.924 10.3381C333.768 10.6534 333.69 10.9915 333.69 11.3523V11.9318C333.69 12.4261 333.775 12.8452 333.945 13.1889C334.119 13.5298 334.359 13.7898 334.665 13.9688C334.972 14.1449 335.329 14.233 335.735 14.233C335.999 14.233 336.238 14.196 336.451 14.1222C336.667 14.0455 336.853 13.9318 337.009 13.7812C337.165 13.6278 337.286 13.4375 337.371 13.2102L338.343 13.483C338.241 13.8125 338.069 14.1023 337.827 14.3523C337.586 14.5994 337.288 14.7926 336.933 14.9318C336.577 15.0682 336.178 15.1364 335.735 15.1364ZM342.719 15.1364C342.089 15.1364 341.545 14.9972 341.087 14.7188C340.633 14.4375 340.282 14.0455 340.035 13.5426C339.79 13.0369 339.668 12.4489 339.668 11.7784C339.668 11.108 339.79 10.517 340.035 10.0057C340.282 9.49148 340.626 9.09091 341.066 8.80398C341.509 8.5142 342.026 8.36932 342.617 8.36932C342.958 8.36932 343.295 8.42614 343.627 8.53977C343.96 8.65341 344.262 8.83807 344.535 9.09375C344.808 9.34659 345.025 9.68182 345.187 10.0994C345.349 10.517 345.43 11.0312 345.43 11.642V12.0682H340.384V11.1989H344.407C344.407 10.8295 344.333 10.5 344.185 10.2102C344.04 9.92045 343.833 9.69176 343.563 9.52415C343.296 9.35653 342.981 9.27273 342.617 9.27273C342.217 9.27273 341.87 9.37216 341.577 9.57102C341.288 9.76705 341.065 10.0227 340.908 10.3381C340.752 10.6534 340.674 10.9915 340.674 11.3523V11.9318C340.674 12.4261 340.759 12.8452 340.93 13.1889C341.103 13.5298 341.343 13.7898 341.65 13.9688C341.957 14.1449 342.313 14.233 342.719 14.233C342.984 14.233 343.222 14.196 343.435 14.1222C343.651 14.0455 343.837 13.9318 343.994 13.7812C344.15 13.6278 344.271 13.4375 344.356 13.2102L345.327 13.483C345.225 13.8125 345.053 14.1023 344.812 14.3523C344.57 14.5994 344.272 14.7926 343.917 14.9318C343.562 15.0682 343.163 15.1364 342.719 15.1364ZM349.619 15.1364C349.005 15.1364 348.477 14.9915 348.033 14.7017C347.59 14.4119 347.249 14.0128 347.011 13.5043C346.772 12.9957 346.653 12.4148 346.653 11.7614C346.653 11.0966 346.775 10.5099 347.019 10.0014C347.266 9.49006 347.61 9.09091 348.05 8.80398C348.494 8.5142 349.011 8.36932 349.602 8.36932C350.062 8.36932 350.477 8.45455 350.846 8.625C351.215 8.79545 351.518 9.03409 351.754 9.34091C351.989 9.64773 352.136 10.0057 352.192 10.4148H351.187C351.11 10.1165 350.94 9.85227 350.675 9.62216C350.414 9.3892 350.062 9.27273 349.619 9.27273C349.227 9.27273 348.883 9.375 348.587 9.57955C348.295 9.78125 348.066 10.0668 347.901 10.4361C347.739 10.8026 347.658 11.233 347.658 11.7273C347.658 12.233 347.738 12.6733 347.897 13.0483C348.059 13.4233 348.286 13.7145 348.579 13.9219C348.874 14.1293 349.221 14.233 349.619 14.233C349.88 14.233 350.117 14.1875 350.33 14.0966C350.543 14.0057 350.724 13.875 350.871 13.7045C351.019 13.5341 351.124 13.3295 351.187 13.0909H352.192C352.136 13.4773 351.995 13.8253 351.771 14.1349C351.549 14.4418 351.255 14.6861 350.888 14.8679C350.525 15.0469 350.102 15.1364 349.619 15.1364ZM356.322 15.1364C355.731 15.1364 355.212 14.9957 354.766 14.7145C354.323 14.4332 353.977 14.0398 353.727 13.5341C353.479 13.0284 353.356 12.4375 353.356 11.7614C353.356 11.0795 353.479 10.4844 353.727 9.97585C353.977 9.46733 354.323 9.07244 354.766 8.79119C355.212 8.50994 355.731 8.36932 356.322 8.36932C356.913 8.36932 357.43 8.50994 357.873 8.79119C358.319 9.07244 358.665 9.46733 358.913 9.97585C359.163 10.4844 359.288 11.0795 359.288 11.7614C359.288 12.4375 359.163 13.0284 358.913 13.5341C358.665 14.0398 358.319 14.4332 357.873 14.7145C357.43 14.9957 356.913 15.1364 356.322 15.1364ZM356.322 14.233C356.771 14.233 357.14 14.1179 357.43 13.8878C357.719 13.6577 357.934 13.3551 358.073 12.9801C358.212 12.6051 358.282 12.1989 358.282 11.7614C358.282 11.3239 358.212 10.9162 358.073 10.5384C357.934 10.1605 357.719 9.85511 357.43 9.62216C357.14 9.3892 356.771 9.27273 356.322 9.27273C355.873 9.27273 355.504 9.3892 355.214 9.62216C354.924 9.85511 354.71 10.1605 354.57 10.5384C354.431 10.9162 354.362 11.3239 354.362 11.7614C354.362 12.1989 354.431 12.6051 354.57 12.9801C354.71 13.3551 354.924 13.6577 355.214 13.8878C355.504 14.1179 355.873 14.233 356.322 14.233ZM363.294 15.1364C362.749 15.1364 362.267 14.9986 361.85 14.723C361.432 14.4446 361.105 14.0526 360.87 13.5469C360.634 13.0384 360.516 12.4375 360.516 11.7443C360.516 11.0568 360.634 10.4602 360.87 9.95455C361.105 9.44886 361.434 9.05824 361.854 8.78267C362.275 8.5071 362.76 8.36932 363.311 8.36932C363.738 8.36932 364.074 8.44034 364.321 8.58239C364.571 8.72159 364.762 8.88068 364.892 9.05966C365.026 9.2358 365.13 9.38068 365.203 9.49432H365.289V6.27273H366.294V15H365.323V13.9943H365.203C365.13 14.1136 365.025 14.2642 364.888 14.446C364.752 14.625 364.557 14.7855 364.304 14.9276C364.051 15.0668 363.715 15.1364 363.294 15.1364ZM363.431 14.233C363.834 14.233 364.175 14.1278 364.453 13.9176C364.732 13.7045 364.944 13.4105 365.088 13.0355C365.233 12.6577 365.306 12.2216 365.306 11.7273C365.306 11.2386 365.235 10.8111 365.093 10.4446C364.951 10.0753 364.74 9.78835 364.462 9.58381C364.184 9.37642 363.84 9.27273 363.431 9.27273C363.005 9.27273 362.65 9.3821 362.365 9.60085C362.084 9.81676 361.873 10.1108 361.73 10.483C361.591 10.8523 361.522 11.267 361.522 11.7273C361.522 12.1932 361.593 12.6165 361.735 12.9972C361.88 13.375 362.093 13.6761 362.374 13.9006C362.658 14.1222 363.01 14.233 363.431 14.233ZM371.02 15.1364C370.39 15.1364 369.846 14.9972 369.388 14.7188C368.934 14.4375 368.583 14.0455 368.336 13.5426C368.091 13.0369 367.969 12.4489 367.969 11.7784C367.969 11.108 368.091 10.517 368.336 10.0057C368.583 9.49148 368.926 9.09091 369.367 8.80398C369.81 8.5142 370.327 8.36932 370.918 8.36932C371.259 8.36932 371.596 8.42614 371.928 8.53977C372.26 8.65341 372.563 8.83807 372.836 9.09375C373.108 9.34659 373.326 9.68182 373.488 10.0994C373.65 10.517 373.73 11.0312 373.73 11.642V12.0682H368.685V11.1989H372.708C372.708 10.8295 372.634 10.5 372.486 10.2102C372.341 9.92045 372.134 9.69176 371.864 9.52415C371.597 9.35653 371.282 9.27273 370.918 9.27273C370.517 9.27273 370.171 9.37216 369.878 9.57102C369.588 9.76705 369.365 10.0227 369.209 10.3381C369.053 10.6534 368.975 10.9915 368.975 11.3523V11.9318C368.975 12.4261 369.06 12.8452 369.23 13.1889C369.404 13.5298 369.644 13.7898 369.951 13.9688C370.257 14.1449 370.614 14.233 371.02 14.233C371.284 14.233 371.523 14.196 371.736 14.1222C371.952 14.0455 372.138 13.9318 372.294 13.7812C372.451 13.6278 372.571 13.4375 372.657 13.2102L373.628 13.483C373.526 13.8125 373.354 14.1023 373.113 14.3523C372.871 14.5994 372.573 14.7926 372.218 14.9318C371.863 15.0682 371.463 15.1364 371.02 15.1364ZM379.897 9.92045L378.993 10.1761C378.936 10.0256 378.853 9.87926 378.742 9.73722C378.634 9.59233 378.486 9.47301 378.299 9.37926C378.111 9.28551 377.871 9.23864 377.578 9.23864C377.178 9.23864 376.844 9.33097 376.577 9.51562C376.313 9.69744 376.181 9.92898 376.181 10.2102C376.181 10.4602 376.272 10.6577 376.453 10.8026C376.635 10.9474 376.919 11.0682 377.306 11.1648L378.277 11.4034C378.863 11.5455 379.299 11.7628 379.586 12.0554C379.873 12.3452 380.016 12.7187 380.016 13.1761C380.016 13.5511 379.908 13.8864 379.692 14.1818C379.479 14.4773 379.181 14.7102 378.797 14.8807C378.414 15.0511 377.968 15.1364 377.459 15.1364C376.792 15.1364 376.239 14.9915 375.801 14.7017C375.364 14.4119 375.087 13.9886 374.971 13.4318L375.925 13.1932C376.016 13.5455 376.188 13.8097 376.441 13.9858C376.696 14.1619 377.03 14.25 377.442 14.25C377.911 14.25 378.283 14.1506 378.559 13.9517C378.837 13.75 378.976 13.5085 378.976 13.2273C378.976 13 378.897 12.8097 378.738 12.6562C378.578 12.5 378.334 12.3835 378.005 12.3068L376.914 12.0511C376.314 11.9091 375.874 11.6889 375.593 11.3906C375.314 11.0895 375.175 10.7131 375.175 10.2614C375.175 9.89205 375.279 9.56534 375.486 9.28125C375.696 8.99716 375.982 8.77415 376.343 8.61222C376.706 8.45028 377.118 8.36932 377.578 8.36932C378.226 8.36932 378.735 8.51136 379.104 8.79545C379.476 9.07955 379.74 9.45455 379.897 9.92045Z" fill="black"/>
<path d="M293.053 10.473C293.053 4.76888 288.289 0.220254 282.591 0.483704L-2.10805e-06 13.5493L282.628 25.5571C288.312 25.7986 293.053 21.2555 293.053 15.5661V10.473Z" fill="url(#paint1_linear_23_5)"/>
<path d="M239.521 15.3636V6.63637H242.469C243.151 6.63637 243.711 6.75285 244.148 6.98581C244.586 7.21592 244.91 7.53268 245.12 7.93609C245.33 8.3395 245.435 8.79831 245.435 9.31251C245.435 9.82672 245.33 10.2827 245.12 10.6804C244.91 11.0781 244.587 11.3906 244.153 11.6179C243.718 11.8423 243.163 11.9546 242.486 11.9546H240.1V11H242.452C242.918 11 243.293 10.9318 243.577 10.7955C243.864 10.6591 244.072 10.4659 244.2 10.2159C244.33 9.96308 244.396 9.66194 244.396 9.31251C244.396 8.96308 244.33 8.65768 244.2 8.39632C244.069 8.13495 243.86 7.93325 243.573 7.7912C243.286 7.64632 242.907 7.57387 242.435 7.57387H240.577V15.3636H239.521ZM243.629 11.4432L245.776 15.3636H244.549L242.435 11.4432H243.629ZM249.734 15.5C249.103 15.5 248.559 15.3608 248.102 15.0824C247.647 14.8011 247.296 14.4091 247.049 13.9063C246.805 13.4006 246.683 12.8125 246.683 12.1421C246.683 11.4716 246.805 10.8807 247.049 10.3693C247.296 9.85512 247.64 9.45456 248.081 9.16762C248.524 8.87785 249.041 8.73297 249.632 8.73297C249.973 8.73297 250.309 8.78978 250.642 8.90342C250.974 9.01706 251.277 9.20172 251.549 9.4574C251.822 9.71024 252.039 10.0455 252.201 10.4631C252.363 10.8807 252.444 11.3949 252.444 12.0057V12.4318H247.399V11.5625H251.421C251.421 11.1932 251.348 10.8636 251.2 10.5739C251.055 10.2841 250.848 10.0554 250.578 9.8878C250.311 9.72018 249.995 9.63637 249.632 9.63637C249.231 9.63637 248.885 9.73581 248.592 9.93467C248.302 10.1307 248.079 10.3864 247.923 10.7017C247.767 11.0171 247.689 11.3551 247.689 11.7159V12.2955C247.689 12.7898 247.774 13.2088 247.944 13.5526C248.118 13.8935 248.358 14.1534 248.664 14.3324C248.971 14.5085 249.328 14.5966 249.734 14.5966C249.998 14.5966 250.237 14.5597 250.45 14.4858C250.666 14.4091 250.852 14.2955 251.008 14.1449C251.164 13.9915 251.285 13.8011 251.37 13.5739L252.342 13.8466C252.24 14.1761 252.068 14.4659 251.826 14.7159C251.585 14.9631 251.287 15.1563 250.931 15.2955C250.576 15.4318 250.177 15.5 249.734 15.5ZM256.446 15.5C255.9 15.5 255.419 15.3622 255.001 15.0867C254.583 14.8082 254.257 14.4162 254.021 13.9105C253.785 13.402 253.667 12.8011 253.667 12.108C253.667 11.4205 253.785 10.8239 254.021 10.3182C254.257 9.81251 254.585 9.42189 255.005 9.14632C255.426 8.87075 255.912 8.73297 256.463 8.73297C256.889 8.73297 257.225 8.80399 257.473 8.94603C257.723 9.08524 257.913 9.24433 258.044 9.42331C258.177 9.59944 258.281 9.74433 258.355 9.85797H258.44V6.63637H259.446V15.3636H258.474V14.358H258.355C258.281 14.4773 258.176 14.6279 258.039 14.8097C257.903 14.9886 257.708 15.1492 257.456 15.2912C257.203 15.4304 256.866 15.5 256.446 15.5ZM256.582 14.5966C256.985 14.5966 257.326 14.4915 257.605 14.2813C257.883 14.0682 258.095 13.7742 258.24 13.3992C258.385 13.0213 258.457 12.5852 258.457 12.0909C258.457 11.6023 258.386 11.1747 258.244 10.8082C258.102 10.4389 257.892 10.152 257.613 9.94745C257.335 9.74007 256.991 9.63637 256.582 9.63637C256.156 9.63637 255.801 9.74575 255.517 9.9645C255.235 10.1804 255.024 10.4744 254.882 10.8466C254.743 11.2159 254.673 11.6307 254.673 12.0909C254.673 12.5568 254.744 12.9801 254.886 13.3608C255.031 13.7386 255.244 14.0398 255.525 14.2642C255.809 14.4858 256.162 14.5966 256.582 14.5966ZM266.064 10.2841L265.16 10.5398C265.103 10.3892 265.019 10.2429 264.909 10.1009C264.801 9.95598 264.653 9.83666 264.466 9.74291C264.278 9.64916 264.038 9.60228 263.745 9.60228C263.345 9.60228 263.011 9.69461 262.744 9.87927C262.48 10.0611 262.348 10.2926 262.348 10.5739C262.348 10.8239 262.439 11.0213 262.62 11.1662C262.802 11.3111 263.086 11.4318 263.473 11.5284L264.444 11.7671C265.029 11.9091 265.466 12.1264 265.752 12.419C266.039 12.7088 266.183 13.0824 266.183 13.5398C266.183 13.9148 266.075 14.25 265.859 14.5455C265.646 14.8409 265.348 15.0739 264.964 15.2443C264.581 15.4148 264.135 15.5 263.626 15.5C262.958 15.5 262.406 15.3551 261.968 15.0654C261.531 14.7756 261.254 14.3523 261.137 13.7955L262.092 13.5568C262.183 13.9091 262.355 14.1733 262.608 14.3494C262.863 14.5256 263.197 14.6136 263.609 14.6136C264.078 14.6136 264.45 14.5142 264.725 14.3154C265.004 14.1136 265.143 13.8722 265.143 13.5909C265.143 13.3636 265.064 13.1733 264.904 13.0199C264.745 12.8636 264.501 12.7472 264.171 12.6705L263.081 12.4148C262.481 12.2727 262.041 12.0526 261.76 11.7543C261.481 11.4531 261.342 11.0767 261.342 10.625C261.342 10.2557 261.446 9.92899 261.653 9.6449C261.863 9.36081 262.149 9.13779 262.51 8.97586C262.873 8.81393 263.285 8.73297 263.745 8.73297C264.393 8.73297 264.902 8.87501 265.271 9.1591C265.643 9.44319 265.907 9.81819 266.064 10.2841ZM270.543 8.81819V9.67047H267.151V8.81819H270.543ZM268.14 7.25001H269.146V13.4886C269.146 13.7727 269.187 13.9858 269.269 14.1279C269.354 14.2671 269.462 14.3608 269.593 14.4091C269.727 14.4546 269.867 14.4773 270.015 14.4773C270.126 14.4773 270.217 14.4716 270.288 14.4602C270.359 14.446 270.415 14.4347 270.458 14.4261L270.663 15.3296C270.594 15.3551 270.499 15.3807 270.377 15.4063C270.255 15.4347 270.1 15.4489 269.913 15.4489C269.629 15.4489 269.35 15.3878 269.077 15.2656C268.807 15.1435 268.583 14.9574 268.404 14.7074C268.228 14.4574 268.14 14.1421 268.14 13.7614V7.25001ZM274.73 15.5C274.099 15.5 273.555 15.3608 273.098 15.0824C272.643 14.8011 272.293 14.4091 272.045 13.9063C271.801 13.4006 271.679 12.8125 271.679 12.1421C271.679 11.4716 271.801 10.8807 272.045 10.3693C272.293 9.85512 272.636 9.45456 273.077 9.16762C273.52 8.87785 274.037 8.73297 274.628 8.73297C274.969 8.73297 275.305 8.78978 275.638 8.90342C275.97 9.01706 276.273 9.20172 276.545 9.4574C276.818 9.71024 277.035 10.0455 277.197 10.4631C277.359 10.8807 277.44 11.3949 277.44 12.0057V12.4318H272.395V11.5625H276.418C276.418 11.1932 276.344 10.8636 276.196 10.5739C276.051 10.2841 275.844 10.0554 275.574 9.8878C275.307 9.72018 274.991 9.63637 274.628 9.63637C274.227 9.63637 273.881 9.73581 273.588 9.93467C273.298 10.1307 273.075 10.3864 272.919 10.7017C272.763 11.0171 272.685 11.3551 272.685 11.7159V12.2955C272.685 12.7898 272.77 13.2088 272.94 13.5526C273.114 13.8935 273.354 14.1534 273.66 14.3324C273.967 14.5085 274.324 14.5966 274.73 14.5966C274.994 14.5966 275.233 14.5597 275.446 14.4858C275.662 14.4091 275.848 14.2955 276.004 14.1449C276.16 13.9915 276.281 13.8011 276.366 13.5739L277.338 13.8466C277.236 14.1761 277.064 14.4659 276.822 14.7159C276.581 14.9631 276.283 15.1563 275.928 15.2955C275.572 15.4318 275.173 15.5 274.73 15.5ZM284.123 8.81819L281.703 15.3636H280.68L278.26 8.81819H279.35L281.157 14.0341H281.225L283.032 8.81819H284.123ZM287.875 15.5C287.284 15.5 286.766 15.3594 286.32 15.0781C285.877 14.7969 285.53 14.4034 285.28 13.8977C285.033 13.3921 284.909 12.8011 284.909 12.125C284.909 11.4432 285.033 10.848 285.28 10.3395C285.53 9.83098 285.877 9.43609 286.32 9.15484C286.766 8.87359 287.284 8.73297 287.875 8.73297C288.466 8.73297 288.983 8.87359 289.426 9.15484C289.872 9.43609 290.219 9.83098 290.466 10.3395C290.716 10.848 290.841 11.4432 290.841 12.125C290.841 12.8011 290.716 13.3921 290.466 13.8977C290.219 14.4034 289.872 14.7969 289.426 15.0781C288.983 15.3594 288.466 15.5 287.875 15.5ZM287.875 14.5966C288.324 14.5966 288.694 14.4815 288.983 14.2514C289.273 14.0213 289.488 13.7188 289.627 13.3438C289.766 12.9688 289.836 12.5625 289.836 12.125C289.836 11.6875 289.766 11.2798 289.627 10.902C289.488 10.5242 289.273 10.2188 288.983 9.98581C288.694 9.75285 288.324 9.63637 287.875 9.63637C287.426 9.63637 287.057 9.75285 286.767 9.98581C286.478 10.2188 286.263 10.5242 286.124 10.902C285.985 11.2798 285.915 11.6875 285.915 12.125C285.915 12.5625 285.985 12.9688 286.124 13.3438C286.263 13.7188 286.478 14.0213 286.767 14.2514C287.057 14.4815 287.426 14.5966 287.875 14.5966Z" fill="black"/>
<defs>
<linearGradient id="paint0_linear_23_5" x1="315.032" y1="-1.89503e-06" x2="348.412" y2="77.6864" gradientUnits="userSpaceOnUse">
<stop offset="0.111498" stop-color="#06FBC0"/>
<stop offset="1" stop-color="#670BAF"/>
</linearGradient>
<linearGradient id="paint1_linear_23_5" x1="164.842" y1="6.86992" x2="175.057" y2="43.9856" gradientUnits="userSpaceOnUse">
<stop stop-color="#0A38AD"/>
<stop offset="1" stop-color="#13E8F5"/>
</linearGradient>
</defs>
</svg>
